P2
65 61
255
0 0 0 0 0 0 0 0 0 0 0 0 14 31 31 31 31 31 31 31 31 31 31 31 31 31 31 31 31 31 31 31 31 31 32 32 32 32 32 32 32 32 32 32 32 32 32 32 32 32 32 32 31 16 0 0 0 0 0 0 0 0 0 0 0
0 0 0 0 0 0 0 0 0 0 0 0 15 68 97 97 97 97 97 97 97 97 97 97 97 97 97 97 97 97 97 97 97 96 96 96 96 96 96 96 96 96 96 96 96 96 96 96 96 96 96 96 32 31 0 0 0 0 0 0 0 0 0 0 0
0 0 0 0 0 0 0 0 0 0 0 0 31 142 255 255 255 255 255 255 255 255 255 255 255 255 255 255 255 255 255 255 255 255 255 255 255 255 255 255 255 255 255 255 255 255 255 255 255 255 255 255 188 31 0 0 0 0 0 0 0 0 0 0 0
0 0 0 0 0 0 0 0 0 0 0 15 31 195 255 255 255 209 153 134 116 115 115 116 116 116 117 117 118 118 119 119 119 119 120 120 121 121 122 122 123 123 124 124 125 125 124 141 220 255 255 255 253 32 15 0 0 0 0 0 0 0 0 0 0
0 0 0 0 0 0 0 0 0 0 0 15 83 254 255 214 133 83 98 122 133 134 133 133 133 133 133 132 132 132 132 132 131 131 131 131 130 130 130 130 129 129 129 129 128 128 129 123 74 50 252 255 255 76 32 0 0 0 0 0 0 0 0 0 0
0 0 0 0 0 0 0 0 0 0 0 31 142 255 200 106 103 150 150 150 150 150 150 150 150 150 150 150 150 150 150 150 150 150 150 150 150 150 150 150 150 150 150 150 150 150 150 150 150 147 32 252 255 183 31 0 0 0 0 0 0 0 0 0 0
0 0 0 0 0 0 0 0 0 0 14 31 193 251 121 111 150 150 150 150 150 150 150 150 150 150 150 150 150 150 144 110 105 104 137 149 150 150 150 150 150 150 150 150 150 150 150 150 150 150 148 42 255 251 32 15 0 0 0 0 0 0 0 0 0
0 0 0 0 0 0 0 0 0 0 16 81 253 164 90 149 149 127 168 112 172 132 146 146 150 150 150 150 150 130 50 96 97 82 64 62 150 150 150 150 150 137 131 174 179 91 180 143 132 137 150 94 193 255 72 30 0 0 0 0 0 0 0 0 0
0 0 0 0 0 0 0 0 0 0 31 142 255 129 121 101 179 215 255 200 246 255 241 113 109 150 150 150 150 131 68 92 97 82 65 91 150 150 150 150 130 85 227 253 255 192 255 255 252 121 116 149 65 255 176 31 0 0 0 0 0 0 0 0 0
0 0 0 0 0 0 0 0 0 15 32 191 245 87 148 58 218 255 255 200 248 255 255 176 76 150 150 150 122 107 68 92 97 81 65 91 94 150 150 150 130 61 252 255 255 192 255 255 255 144 90 150 55 250 249 32 15 0 0 0 0 0 0 0 0
0 0 0 0 0 0 0 0 0 16 79 254 175 90 148 58 218 255 255 200 248 255 255 176 76 150 150 116 97 69 68 92 97 81 66 91 56 111 150 150 130 61 252 255 255 192 255 255 255 144 90 150 109 180 255 67 30 0 0 0 0 0 0 0 0
0 0 0 0 0 0 0 0 0 32 141 255 136 79 112 58 218 255 255 200 248 255 255 176 59 110 107 116 70 78 68 92 97 80 66 91 76 87 62 110 103 61 252 255 255 192 255 255 255 144 61 113 110 75 255 169 31 0 0 0 0 0 0 0 0
0 0 0 0 0 0 0 0 14 31 189 249 90 134 132 57 218 255 255 200 248 255 255 176 76 137 137 148 103 78 68 92 97 80 66 91 96 94 149 137 117 61 252 255 255 192 255 255 255 144 90 134 134 47 252 246 32 14 0 0 0 0 0 0 0
0 0 0 0 0 0 0 0 16 77 253 181 89 150 148 58 218 255 255 200 248 255 255 176 76 150 150 150 150 78 68 92 97 79 67 91 96 150 150 150 130 61 252 255 255 192 255 255 255 144 90 150 150 103 189 255 63 30 0 0 0 0 0 0 0
0 0 0 0 0 0 0 0 31 141 255 139 112 150 148 58 218 252 197 183 191 236 255 176 76 150 150 150 150 60 68 92 97 79 67 77 97 150 150 150 130 61 252 215 198 165 197 221 255 144 90 150 150 144 82 255 162 31 0 0 0 0 0 0 0
0 0 0 0 0 0 0 15 32 187 252 93 147 150 148 58 198 237 182 178 142 247 147 176 76 150 150 150 150 145 109 103 97 89 64 144 139 150 150 150 130 61 187 169 166 130 138 231 140 144 90 150 150 150 46 254 243 32 13 0 0 0 0 0 0
0 0 0 0 0 0 0 16 75 252 188 88 150 150 148 57 93 147 115 148 145 126 108 109 76 150 150 150 150 150 150 141 61 97 143 150 150 150 150 150 130 65 118 113 141 150 150 139 104 85 89 150 150 150 97 197 255 58 30 0 0 0 0 0 0
0 0 0 0 0 0 0 30 140 255 141 85 123 122 121 95 126 127 127 127 127 127 127 127 105 127 127 127 127 127 127 127 127 127 127 127 127 127 127 127 127 120 127 127 127 127 127 127 127 127 116 121 123 124 118 90 255 154 32 0 0 0 0 0 0
0 0 0 0 0 0 14 31 185 253 111 182 184 185 184 48 55 56 56 56 56 56 56 56 56 56 56 56 49 54 56 56 44 60 68 67 54 68 68 68 68 68 68 68 68 68 68 68 67 44 139 185 185 184 183 44 254 239 32 12 0 0 0 0 0
0 0 0 0 0 0 15 73 251 195 133 255 255 255 255 255 152 53 68 68 68 68 68 68 68 68 68 68 67 109 50 68 99 69 85 90 64 78 85 85 85 85 85 85 85 85 85 79 94 155 255 255 255 255 255 142 204 255 54 29 0 0 0 0 0
0 0 0 0 0 0 31 140 255 143 171 255 255 255 255 255 255 244 41 68 68 68 68 68 68 66 55 54 68 80 142 56 114 130 63 112 100 79 81 57 80 85 85 85 85 85 64 143 213 255 255 255 255 255 255 232 98 255 146 31 0 0 0 0 0
0 0 0 0 0 16 31 183 254 86 229 255 255 255 255 255 255 255 255 117 58 68 68 68 68 68 68 111 78 65 150 55 145 149 74 150 74 104 97 71 85 85 85 85 82 77 147 253 255 255 255 255 255 255 255 194 47 255 235 32 10 0 0 0 0
0 0 0 0 0 16 71 250 201 47 54 159 255 255 255 255 255 255 255 255 229 40 68 68 68 68 68 62 145 51 150 95 150 150 97 149 89 106 67 85 85 85 85 69 131 192 255 255 255 255 255 255 255 254 149 79 52 212 255 49 26 0 0 0 0
0 0 0 0 0 30 138 255 143 53 68 66 60 254 255 255 255 255 255 255 255 255 86 62 68 68 68 68 68 111 147 102 138 139 104 143 100 99 85 85 85 84 66 147 246 255 255 255 255 255 255 255 223 145 63 85 77 109 255 137 31 0 0 0 0
0 0 0 0 15 32 181 254 96 65 68 68 68 41 225 255 255 255 255 255 255 255 255 206 44 68 68 68 56 122 85 106 93 80 98 86 65 69 85 85 74 115 172 255 255 255 255 255 255 255 255 163 104 77 85 85 85 39 255 231 32 11 0 0 0
0 0 0 0 15 69 250 208 47 68 68 68 68 68 59 123 255 255 255 255 255 255 255 255 254 62 66 68 55 83 103 84 109 84 103 94 120 63 85 62 147 234 255 255 255 255 255 255 255 243 147 63 84 85 85 85 85 51 220 255 45 32 0 0 0
0 0 0 0 31 138 255 145 52 68 68 68 68 58 67 67 45 252 255 255 255 255 255 255 255 255 176 49 55 68 112 112 106 107 100 87 124 57 96 156 254 255 255 255 255 255 255 255 188 128 70 80 84 85 85 85 85 76 119 255 128 31 0 0 0
0 0 0 14 31 179 255 102 63 68 68 63 142 168 219 53 68 46 199 255 255 255 255 255 255 255 255 249 46 54 55 82 94 93 87 73 42 131 215 255 255 255 255 255 255 255 253 147 75 81 112 140 193 62 85 85 85 85 43 255 226 31 0 0 0
0 0 0 16 67 248 215 49 68 68 68 89 250 193 177 255 58 68 63 91 255 255 255 255 255 255 255 255 255 141 55 65 51 62 73 77 148 254 255 255 255 255 255 255 255 217 143 64 85 77 220 210 203 249 66 85 85 85 49 227 255 42 15 0 0
0 0 0 30 136 255 148 51 65 103 56 67 160 231 165 154 61 58 62 68 39 244 255 255 255 255 255 255 255 255 241 40 58 49 133 194 255 255 255 255 255 255 255 255 159 99 78 80 72 83 177 226 195 181 94 79 79 85 73 133 255 121 32 0 0
0 0 15 32 177 255 108 62 146 246 219 66 64 187 146 63 66 153 247 50 68 52 167 255 255 255 255 255 255 255 255 255 108 143 248 255 255 255 255 255 255 255 241 147 62 84 119 209 237 79 84 176 162 69 84 157 222 55 84 49 255 222 32 0 0
0 0 15 65 248 222 51 56 172 254 249 60 150 248 244 57 57 201 254 236 54 68 66 64 254 255 255 255 255 255 255 255 255 255 255 255 255 255 255 255 255 183 124 72 85 66 145 254 246 58 131 218 246 71 76 179 255 243 55 46 235 255 38 15 0
0 0 31 135 255 148 50 63 203 165 141 249 254 253 255 250 201 247 176 209 63 68 68 68 41 229 255 255 255 255 255 255 255 255 255 255 255 255 255 252 147 72 83 85 85 82 183 172 191 253 251 253 254 242 176 247 184 194 96 70 162 255 113 31 0
0 14 31 175 255 110 62 68 98 209 121 56 248 207 255 214 150 126 243 165 58 68 68 68 68 58 131 255 255 255 255 255 255 255 255 255 255 255 212 141 65 85 85 85 85 85 94 242 156 63 251 212 255 207 167 151 236 167 75 79 104 255 217 31 0
0 16 63 246 255 78 68 68 68 57 68 68 174 118 185 176 78 68 66 100 68 68 68 68 68 68 55 155 255 255 255 255 255 255 255 255 255 233 77 79 85 85 85 85 85 85 84 76 79 85 155 117 176 184 116 85 71 147 83 83 87 255 255 36 16
0 30 134 255 255 77 68 68 68 61 60 67 188 249 254 255 63 62 62 68 68 68 68 68 62 101 167 255 255 255 255 255 255 255 255 255 255 255 250 50 82 85 85 85 85 85 85 82 71 70 160 255 245 255 87 72 78 85 85 82 92 255 255 106 31
14 31 173 255 255 120 62 68 68 128 242 243 213 87 57 181 255 244 222 64 68 68 68 52 143 228 255 255 255 255 255 255 255 255 255 255 255 255 255 255 158 60 85 85 85 85 85 113 218 222 243 136 78 176 254 211 224 76 85 74 123 255 255 212 31
31 61 245 255 255 236 40 68 68 71 175 225 209 54 64 152 237 185 177 61 68 65 77 150 254 255 255 255 255 255 255 255 246 255 255 255 255 255 255 255 255 247 46 83 85 85 85 72 181 253 219 61 84 156 246 198 213 68 85 59 151 255 255 255 34
31 32 218 255 255 255 86 63 68 65 210 176 247 131 61 224 129 206 127 68 56 131 201 255 255 255 255 255 255 255 255 177 105 73 254 255 255 255 255 255 255 255 255 142 64 85 85 84 212 177 218 151 79 194 119 224 153 83 79 80 231 255 255 174 74
4 31 32 110 255 255 255 33 67 66 55 57 86 58 68 57 99 65 54 59 145 250 255 255 255 255 255 255 255 248 145 59 57 65 46 215 255 255 255 255 255 255 255 255 243 44 84 85 66 79 115 85 85 64 126 106 69 78 62 154 255 251 143 41 16
0 0 16 31 39 248 255 254 34 62 68 68 68 68 68 68 68 60 110 175 255 255 255 255 255 255 255 255 192 127 56 68 56 65 85 74 95 255 255 255 255 255 255 255 255 255 127 67 85 85 85 85 85 85 85 85 65 80 159 255 210 125 32 15 0
0 0 0 0 31 32 182 255 255 79 46 68 68 68 68 68 52 145 235 255 255 255 255 255 255 255 253 147 69 66 65 97 150 66 84 85 84 42 233 255 255 255 255 255 255 255 255 237 42 84 85 85 85 85 83 58 126 209 255 157 68 31 15 0 0
0 0 0 0 0 30 32 73 255 255 186 33 67 68 64 85 155 254 255 255 255 255 255 255 255 208 136 54 68 68 136 208 233 192 155 84 85 85 69 122 255 255 255 255 255 255 255 255 255 112 70 85 85 73 62 144 251 241 141 33 15 16 0 0 0
0 0 0 0 0 0 0 31 32 234 255 249 39 51 137 211 255 255 255 255 255 255 255 254 151 81 65 67 58 68 57 254 113 190 167 73 84 85 85 84 43 244 255 255 255 255 255 255 255 255 229 43 61 98 172 255 186 105 31 15 0 0 0 0 0
0 0 0 0 0 0 0 0 31 32 138 255 255 109 88 255 255 255 255 255 255 255 223 142 53 68 67 145 215 79 68 47 254 155 70 74 155 112 84 85 85 63 151 255 255 255 255 255 255 255 237 140 137 230 254 146 49 26 15 0 0 0 0 0 0
0 0 0 0 0 0 0 0 0 28 31 48 253 255 215 35 244 255 255 255 255 160 94 63 68 68 109 209 252 206 63 144 252 99 85 80 248 255 148 84 85 85 82 50 250 255 255 255 255 179 123 149 254 223 133 32 16 0 0 0 0 0 0 0 0
0 0 0 0 0 0 0 0 0 0 0 31 32 206 255 254 51 165 255 236 146 53 68 68 68 68 71 149 190 205 208 243 254 252 157 152 177 254 161 72 85 85 85 85 56 179 255 251 144 125 195 255 165 81 30 16 0 0 0 0 0 0 0 0 0
0 0 0 0 0 0 0 0 0 0 0 0 31 32 96 255 255 144 58 109 60 68 68 68 68 68 62 247 169 129 136 196 253 254 231 172 253 170 122 80 85 85 85 85 85 81 62 127 142 245 247 143 36 15 13 0 0 0 0 0 0 0 0 0 0
0 0 0 0 0 0 0 0 0 0 0 0 0 11 31 36 245 255 236 32 63 68 68 68 68 68 68 55 105 66 59 236 193 173 155 71 66 177 126 85 85 85 85 85 85 63 88 162 255 200 117 32 15 0 0 0 0 0 0 0 0 0 0 0 0
0 0 0 0 0 0 0 0 0 0 0 0 0 0 0 31 32 166 255 255 73 47 68 68 68 68 68 68 68 67 62 231 246 203 227 76 81 84 85 85 85 85 85 82 58 131 219 254 151 59 30 15 0 0 0 0 0 0 0 0 0 0 0 0 0
0 0 0 0 0 0 0 0 0 0 0 0 0 0 0 0 27 32 63 254 255 179 33 68 68 68 68 68 154 187 178 188 122 116 255 193 181 70 85 85 85 85 71 66 145 253 234 138 31 16 0 0 0 0 0 0 0 0 0 0 0 0 0 0 0
0 0 0 0 0 0 0 0 0 0 0 0 0 0 0 0 0 0 32 32 225 255 248 37 60 68 68 68 167 235 197 197 58 54 150 254 239 156 85 85 84 60 106 181 255 176 95 31 15 0 0 0 0 0 0 0 0 0 0 0 0 0 0 0 0
0 0 0 0 0 0 0 0 0 0 0 0 0 0 0 0 0 0 0 31 32 122 255 255 101 42 68 68 59 143 221 254 52 69 239 172 194 124 85 79 57 140 237 252 144 42 16 14 0 0 0 0 0 0 0 0 0 0 0 0 0 0 0 0 0
0 0 0 0 0 0 0 0 0 0 0 0 0 0 0 0 0 0 0 0 13 31 42 251 255 209 32 66 58 104 126 147 54 62 132 150 118 74 66 78 154 255 213 127 31 15 0 0 0 0 0 0 0 0 0 0 0 0 0 0 0 0 0 0 0
0 0 0 0 0 0 0 0 0 0 0 0 0 0 0 0 0 0 0 0 0 0 31 32 193 255 253 48 53 68 68 68 58 65 85 85 84 58 123 205 255 158 71 30 15 0 0 0 0 0 0 0 0 0 0 0 0 0 0 0 0 0 0 0 0
0 0 0 0 0 0 0 0 0 0 0 0 0 0 0 0 0 0 0 0 0 0 0 30 32 82 254 255 158 34 59 68 58 65 81 63 63 143 249 242 142 33 15 13 0 0 0 0 0 0 0 0 0 0 0 0 0 0 0 0 0 0 0 0 0
0 0 0 0 0 0 0 0 0 0 0 0 0 0 0 0 0 0 0 0 0 0 0 0 16 31 33 239 255 253 157 76 56 60 96 143 207 255 189 108 32 16 0 0 0 0 0 0 0 0 0 0 0 0 0 0 0 0 0 0 0 0 0 0 0
0 0 0 0 0 0 0 0 0 0 0 0 0 0 0 0 0 0 0 0 0 0 0 0 0 0 31 32 151 255 255 255 255 255 255 255 254 147 51 26 16 0 0 0 0 0 0 0 0 0 0 0 0 0 0 0 0 0 0 0 0 0 0 0 0
0 0 0 0 0 0 0 0 0 0 0 0 0 0 0 0 0 0 0 0 0 0 0 0 0 0 0 25 31 54 254 255 255 255 255 225 134 31 16 0 0 0 0 0 0 0 0 0 0 0 0 0 0 0 0 0 0 0 0 0 0 0 0 0 0
0 0 0 0 0 0 0 0 0 0 0 0 0 0 0 0 0 0 0 0 0 0 0 0 0 0 0 0 0 31 32 214 255 255 168 84 31 15 0 0 0 0 0 0 0 0 0 0 0 0 0 0 0 0 0 0 0 0 0 0 0 0 0 0 0
0 0 0 0 0 0 0 0 0 0 0 0 0 0 0 0 0 0 0 0 0 0 0 0 0 0 0 0 0 0 30 32 107 143 38 15 12 0 0 0 0 0 0 0 0 0 0 0 0 0 0 0 0 0 0 0 0 0 0 0 0 0 0 0 0