P2
130 123
255
0 0 0 0 0 0 0 0 0 0 0 0 0 0 0 0 0 0 0 0 0 0 0 0 28 32 31 31 31 31 31 31 31 31 31 31 31 31 31 31 31 31 31 31 31 31 31 31 31 31 31 31 31 31 31 31 31 31 31 31 31 31 31 31 31 31 32 32 32 32 32 32 32 32 32 32 32 32 32 32 32 32 32 32 32 32 32 32 32 32 32 32 32 32 32 32 32 32 32 32 32 32 32 32 31 32 0 0 0 0 0 0 0 0 0 0 0 0 0 0 0 0 0 0 0 0 0 0 0 0 
0 0 0 0 0 0 0 0 0 0 0 0 0 0 0 0 0 0 0 0 0 0 0 0 32 32 32 32 32 32 32 32 32 32 32 32 32 32 32 32 32 32 32 32 32 32 32 32 32 32 32 32 32 32 32 32 32 32 32 32 32 32 32 32 32 32 32 32 32 32 32 32 32 32 32 32 32 32 32 32 32 32 32 32 32 32 32 32 32 32 32 32 32 32 32 32 32 32 32 32 32 32 32 32 32 31 32 0 0 0 0 0 0 0 0 0 0 0 0 0 0 0 0 0 0 0 0 0 0 0 
0 0 0 0 0 0 0 0 0 0 0 0 0 0 0 0 0 0 0 0 0 0 0 20 31 32 104 163 163 163 163 163 163 163 163 163 163 163 163 163 163 163 163 163 163 163 163 163 163 163 163 163 163 163 163 163 163 163 163 163 163 163 163 163 163 161 161 161 161 161 161 161 161 161 161 161 161 161 161 161 161 161 161 161 161 161 161 161 161 161 161 161 161 161 161 161 161 161 161 161 161 161 161 140 32 32 31 0 0 0 0 0 0 0 0 0 0 0 0 0 0 0 0 0 0 0 0 0 0 0 
0 0 0 0 0 0 0 0 0 0 0 0 0 0 0 0 0 0 0 0 0 0 0 30 32 32 212 255 255 255 255 255 255 255 255 255 255 255 255 255 255 255 255 255 255 255 255 255 255 255 255 255 255 255 255 255 255 255 255 255 255 255 255 255 255 255 255 255 255 255 255 255 255 255 255 255 255 255 255 255 255 255 255 255 255 255 255 255 255 255 255 255 255 255 255 255 255 255 255 255 255 255 255 252 56 32 31 0 0 0 0 0 0 0 0 0 0 0 0 0 0 0 0 0 0 0 0 0 0 0 
0 0 0 0 0 0 0 0 0 0 0 0 0 0 0 0 0 0 0 0 0 0 0 32 32 65 253 255 255 255 255 255 255 255 255 255 255 255 255 255 255 255 255 255 255 255 255 255 255 255 255 255 255 255 255 255 255 255 255 255 255 255 255 255 255 255 255 255 255 255 255 255 255 255 255 255 255 255 255 255 255 255 255 255 255 255 255 255 255 255 255 255 255 255 255 255 255 255 255 255 255 255 255 255 125 32 31 0 0 0 0 0 0 0 0 0 0 0 0 0 0 0 0 0 0 0 0 0 0 0 
0 0 0 0 0 0 0 0 0 0 0 0 0 0 0 0 0 0 0 0 0 0 20 31 32 136 255 255 255 255 255 255 255 255 255 255 254 237 213 200 197 198 198 198 198 200 200 200 200 201 202 202 202 202 204 204 204 204 206 206 206 206 207 207 207 207 209 209 209 209 210 211 211 211 212 213 213 213 213 215 215 215 215 216 216 216 216 218 218 218 218 216 215 234 254 255 255 255 255 255 255 255 255 255 198 32 32 30 0 0 0 0 0 0 0 0 0 0 0 0 0 0 0 0 0 0 0 0 0 0 
0 0 0 0 0 0 0 0 0 0 0 0 0 0 0 0 0 0 0 0 0 0 31 32 32 210 255 255 255 255 255 255 255 237 164 100 51 32 32 32 32 32 32 32 32 32 32 32 32 32 32 32 32 32 32 32 32 32 32 32 32 32 32 32 32 32 32 32 32 32 32 32 32 32 32 32 32 32 32 32 32 32 32 32 32 32 32 32 32 32 32 32 32 32 49 107 185 251 255 255 255 255 255 255 251 52 32 31 0 0 0 0 0 0 0 0 0 0 0 0 0 0 0 0 0 0 0 0 0 0 
0 0 0 0 0 0 0 0 0 0 0 0 0 0 0 0 0 0 0 0 0 0 31 32 62 254 255 255 255 255 255 233 123 40 32 46 74 95 109 116 118 118 117 117 117 117 116 116 116 116 116 116 116 115 115 115 115 114 114 114 114 114 113 113 113 113 112 112 112 112 111 111 111 111 110 110 110 110 110 109 109 109 109 108 108 108 108 107 107 107 107 108 109 97 74 41 32 67 190 254 255 255 255 255 255 121 32 32 0 0 0 0 0 0 0 0 0 0 0 0 0 0 0 0 0 0 0 0 0 0 
0 0 0 0 0 0 0 0 0 0 0 0 0 0 0 0 0 0 0 0 0 23 31 32 134 255 255 255 255 254 174 46 34 77 126 149 150 150 150 150 150 150 150 150 150 150 150 150 150 150 150 150 150 150 150 150 150 150 150 150 150 150 150 150 150 150 150 150 150 150 150 150 150 150 150 150 150 150 150 150 150 150 150 150 150 150 150 150 150 150 150 150 150 150 150 146 108 48 33 127 251 255 255 255 255 193 32 32 32 0 0 0 0 0 0 0 0 0 0 0 0 0 0 0 0 0 0 0 0 0 
0 0 0 0 0 0 0 0 0 0 0 0 0 0 0 0 0 0 0 0 0 31 32 32 208 255 255 255 254 138 32 57 131 150 150 150 150 150 150 150 150 150 150 150 150 150 150 150 150 150 150 150 150 150 150 150 150 150 150 150 150 150 150 150 150 150 150 150 150 150 150 150 150 150 150 150 150 150 150 150 150 150 150 150 150 150 150 150 150 150 150 150 150 150 150 150 150 145 80 32 104 250 255 255 255 250 49 32 32 0 0 0 0 0 0 0 0 0 0 0 0 0 0 0 0 0 0 0 0 0 
0 0 0 0 0 0 0 0 0 0 0 0 0 0 0 0 0 0 0 0 0 31 32 61 253 255 255 255 146 32 75 147 150 150 150 150 150 150 150 150 150 150 150 150 150 150 150 150 150 150 150 150 150 150 150 150 150 150 150 150 150 150 150 150 150 150 150 150 150 150 150 150 150 150 150 150 150 150 150 150 150 150 150 150 150 150 150 150 150 150 150 150 150 150 150 150 150 150 149 94 32 123 254 255 255 255 116 32 31 0 0 0 0 0 0 0 0 0 0 0 0 0 0 0 0 0 0 0 0 0 
0 0 0 0 0 0 0 0 0 0 0 0 0 0 0 0 0 0 0 0 28 31 32 132 255 255 255 194 33 72 148 150 150 150 150 150 150 150 150 150 150 150 150 150 150 150 150 150 150 150 150 150 150 150 150 150 150 150 150 150 150 146 67 84 149 112 56 129 150 150 150 150 150 150 150 150 150 150 150 150 150 150 150 150 150 150 150 150 150 150 150 150 150 150 150 150 150 150 150 149 83 32 179 255 255 255 189 32 31 31 0 0 0 0 0 0 0 0 0 0 0 0 0 0 0 0 0 0 0 0 
0 0 0 0 0 0 0 0 0 0 0 0 0 0 0 0 0 0 0 0 29 32 32 206 255 255 248 62 48 144 150 150 150 150 150 150 150 150 150 150 150 150 150 150 150 150 150 150 150 150 150 150 150 150 150 150 150 150 150 134 138 112 75 58 127 47 97 78 146 126 149 150 150 150 150 150 150 150 150 150 150 150 150 150 150 150 150 150 150 150 150 150 150 150 150 150 150 150 150 150 147 54 52 241 255 255 247 46 32 31 0 0 0 0 0 0 0 0 0 0 0 0 0 0 0 0 0 0 0 0 
0 0 0 0 0 0 0 0 0 0 0 0 0 0 0 0 0 0 0 0 32 32 59 252 255 255 163 32 114 150 150 150 150 150 147 118 108 133 149 146 117 108 134 150 150 150 150 150 150 150 150 150 150 150 150 150 150 150 133 47 49 105 87 69 125 46 119 73 78 47 102 150 150 150 150 150 150 150 150 150 150 150 150 150 150 149 110 104 103 110 147 106 105 102 115 149 150 150 150 150 150 123 32 142 255 255 255 112 32 32 0 0 0 0 0 0 0 0 0 0 0 0 0 0 0 0 0 0 0 0 
0 0 0 0 0 0 0 0 0 0 0 0 0 0 0 0 0 0 0 28 32 32 130 255 255 254 74 52 149 150 148 147 149 126 105 196 219 163 92 109 198 219 156 97 143 149 143 150 150 150 150 150 150 150 150 150 150 150 111 81 53 98 87 69 125 46 119 73 56 104 77 150 150 150 150 150 150 150 150 150 150 150 125 116 113 99 199 254 254 197 73 210 254 254 185 96 116 112 125 150 150 149 65 49 245 255 255 184 32 31 29 0 0 0 0 0 0 0 0 0 0 0 0 0 0 0 0 0 0 0 
0 0 0 0 0 0 0 0 0 0 0 0 0 0 0 0 0 0 0 30 32 32 204 255 255 226 32 95 150 149 91 103 130 175 251 255 255 255 139 237 255 255 255 227 144 131 65 122 149 150 150 150 150 150 150 150 150 150 112 82 54 98 86 69 125 46 118 74 56 105 77 150 150 150 150 150 150 150 150 150 145 111 50 199 206 251 255 255 255 255 128 255 255 255 255 249 202 187 43 110 147 150 116 32 173 255 255 246 43 32 30 0 0 0 0 0 0 0 0 0 0 0 0 0 0 0 0 0 0 0 
0 0 0 0 0 0 0 0 0 0 0 0 0 0 0 0 0 0 0 31 32 57 252 255 255 160 32 128 147 57 53 182 255 255 255 255 255 255 145 242 255 255 255 255 255 255 96 53 97 150 150 150 150 150 150 150 150 150 112 82 54 99 86 69 125 46 118 74 56 105 77 150 150 150 150 150 150 150 150 150 110 54 60 249 255 255 255 255 255 255 129 255 255 255 255 255 255 231 56 52 122 150 148 44 99 255 255 255 107 32 31 0 0 0 0 0 0 0 0 0 0 0 0 0 0 0 0 0 0 0 
0 0 0 0 0 0 0 0 0 0 0 0 0 0 0 0 0 0 32 32 32 128 255 255 254 88 48 149 147 52 64 182 255 255 255 255 255 255 145 242 255 255 255 255 255 255 97 68 84 150 150 150 150 150 150 150 147 118 112 82 54 99 85 69 125 46 117 75 56 105 77 128 138 150 150 150 150 150 150 150 110 62 61 249 255 255 255 255 255 255 129 255 255 255 255 255 255 231 57 58 122 150 150 78 42 245 255 255 180 32 31 31 0 0 0 0 0 0 0 0 0 0 0 0 0 0 0 0 0 0 
0 0 0 0 0 0 0 0 0 0 0 0 0 0 0 0 0 0 31 32 32 202 255 255 235 35 86 150 147 52 64 182 255 255 255 255 255 255 145 242 255 255 255 255 255 255 97 68 84 150 150 150 150 150 150 150 94 32 97 82 54 100 85 69 125 46 117 75 56 105 77 50 60 149 150 150 150 150 150 150 110 62 61 249 255 255 255 255 255 255 129 255 255 255 255 255 255 231 57 58 122 150 150 115 32 183 255 255 244 40 32 32 0 0 0 0 0 0 0 0 0 0 0 0 0 0 0 0 0 0 
0 0 0 0 0 0 0 0 0 0 0 0 0 0 0 0 0 0 31 32 55 253 255 255 166 32 125 150 147 52 64 182 255 255 255 255 255 255 145 242 255 255 255 255 255 255 97 68 84 150 150 150 150 150 150 150 61 47 91 82 54 100 84 69 125 46 116 76 56 105 77 47 45 143 150 150 150 150 150 150 110 62 61 249 255 255 255 255 255 255 129 255 255 255 255 255 255 231 57 58 122 150 150 146 39 112 255 255 255 103 32 32 0 0 0 0 0 0 0 0 0 0 0 0 0 0 0 0 0 0 
0 0 0 0 0 0 0 0 0 0 0 0 0 0 0 0 0 0 32 32 126 255 255 255 95 45 148 150 147 52 64 182 255 255 255 255 255 255 145 242 255 255 255 255 255 255 97 68 84 150 150 150 150 148 83 130 45 64 91 82 54 101 84 69 125 46 116 76 56 105 77 47 65 121 79 136 150 150 150 150 110 62 61 249 255 255 255 255 255 255 129 255 255 255 255 255 255 231 57 58 122 150 150 150 73 46 248 255 255 175 32 31 29 0 0 0 0 0 0 0 0 0 0 0 0 0 0 0 0 0 
0 0 0 0 0 0 0 0 0 0 0 0 0 0 0 0 0 32 32 32 200 255 255 240 37 83 150 150 147 52 64 182 255 255 255 255 255 255 145 242 255 255 255 255 255 255 97 68 84 150 150 150 150 101 48 65 54 66 91 82 54 101 83 69 125 46 115 76 56 105 77 47 85 67 48 67 149 150 150 150 110 62 61 249 255 255 255 255 255 255 129 255 255 255 255 255 255 231 57 58 122 150 150 150 111 32 191 255 255 241 39 32 31 0 0 0 0 0 0 0 0 0 0 0 0 0 0 0 0 0 
0 0 0 0 0 0 0 0 0 0 0 0 0 0 0 0 0 31 32 54 251 255 255 173 32 61 76 76 74 50 64 182 255 255 255 255 255 255 145 242 255 255 255 255 255 255 97 68 50 70 70 70 64 49 131 34 75 66 91 82 54 102 83 69 125 46 115 77 56 105 77 47 105 33 108 70 57 70 70 70 57 62 61 249 255 255 255 255 255 255 129 255 255 255 255 255 255 231 57 58 65 75 76 76 71 32 119 255 255 255 98 32 31 0 0 0 0 0 0 0 0 0 0 0 0 0 0 0 0 0 
0 0 0 0 0 0 0 0 0 0 0 0 0 0 0 0 0 31 32 124 255 255 255 101 43 118 118 118 117 51 64 182 255 255 255 255 255 255 145 242 255 255 255 255 255 255 97 68 74 124 124 124 129 147 150 57 106 66 91 82 54 102 82 69 125 46 115 77 56 105 77 47 134 38 138 149 135 124 124 124 93 62 61 249 255 255 255 255 255 255 129 255 255 255 255 255 255 231 57 58 99 119 118 118 118 63 52 250 255 255 171 32 31 28 0 0 0 0 0 0 0 0 0 0 0 0 0 0 0 0 
0 0 0 0 0 0 0 0 0 0 0 0 0 0 0 0 29 31 32 198 255 255 243 41 79 150 150 150 147 52 64 182 255 255 255 255 255 255 145 242 255 255 255 255 255 255 97 68 84 150 150 150 150 150 150 147 149 66 91 82 54 102 82 69 125 46 114 78 56 105 77 47 146 146 150 150 150 150 150 150 110 62 61 249 255 255 255 255 255 255 129 255 255 255 255 255 255 231 57 58 122 150 150 150 150 107 32 198 255 255 238 37 32 30 0 0 0 0 0 0 0 0 0 0 0 0 0 0 0 0 
0 0 0 0 0 0 0 0 0 0 0 0 0 0 0 0 32 32 53 251 255 255 180 32 117 150 150 150 147 52 64 182 255 255 255 255 255 255 145 242 255 255 255 255 255 255 97 68 84 150 150 150 150 150 150 150 150 66 91 82 54 103 81 69 125 46 114 78 56 105 77 47 146 150 150 150 150 150 150 150 110 62 61 249 255 255 255 255 255 255 129 255 255 255 255 255 255 231 57 58 122 150 150 150 150 142 35 126 255 255 255 94 32 32 0 0 0 0 0 0 0 0 0 0 0 0 0 0 0 0 
0 0 0 0 0 0 0 0 0 0 0 0 0 0 0 0 32 32 122 255 255 255 108 40 147 150 150 150 147 52 64 182 255 255 255 255 255 255 145 242 255 255 255 255 255 255 97 68 84 150 150 150 150 150 150 150 150 66 91 82 54 104 81 69 125 46 113 78 56 105 77 47 146 150 150 150 150 150 150 150 110 62 61 249 255 255 255 255 255 255 129 255 255 255 255 255 255 231 57 58 122 150 150 150 150 150 65 57 252 255 255 166 32 31 28 0 0 0 0 0 0 0 0 0 0 0 0 0 0 0 
0 0 0 0 0 0 0 0 0 0 0 0 0 0 0 30 32 32 196 255 255 247 44 75 150 150 150 150 147 52 64 182 255 255 255 255 255 255 145 242 255 255 255 255 255 255 97 68 84 150 150 150 150 150 150 150 150 71 85 82 54 104 80 69 125 46 113 79 56 106 76 45 148 150 150 150 150 150 150 150 110 62 61 249 255 255 255 254 253 254 129 254 253 254 255 255 255 231 57 58 122 150 150 150 150 150 104 32 206 255 255 235 35 32 31 0 0 0 0 0 0 0 0 0 0 0 0 0 0 0 
0 0 0 0 0 0 0 0 0 0 0 0 0 0 0 31 32 51 251 255 255 187 32 114 150 150 150 150 147 52 64 182 255 255 250 176 140 143 111 160 140 145 217 255 255 255 97 68 84 150 150 150 150 150 150 150 150 87 50 93 54 105 80 69 125 46 112 79 56 115 49 55 150 150 150 150 150 150 150 150 110 62 61 249 255 254 176 134 142 133 76 134 141 133 189 254 255 231 57 58 122 150 150 150 150 150 139 34 133 255 255 255 89 32 31 0 0 0 0 0 0 0 0 0 0 0 0 0 0 0 
0 0 0 0 0 0 0 0 0 0 0 0 0 0 0 32 32 120 255 255 255 115 38 145 150 150 150 150 147 52 64 182 255 229 125 209 254 246 91 166 254 246 161 156 254 255 97 68 84 150 150 150 150 150 150 150 150 141 107 143 54 104 80 69 125 46 113 79 56 138 112 129 150 150 150 150 150 150 150 150 110 62 61 249 251 136 198 254 253 181 156 196 254 254 183 149 254 231 57 58 122 150 150 150 150 150 150 61 62 254 255 255 161 32 31 27 0 0 0 0 0 0 0 0 0 0 0 0 0 0 
0 0 0 0 0 0 0 0 0 0 0 0 0 0 31 32 32 194 255 255 250 47 72 150 150 150 150 150 147 52 64 182 215 128 246 228 156 88 110 90 118 188 248 201 138 248 97 68 84 150 150 150 150 150 150 150 150 150 150 150 75 46 103 69 125 46 132 44 49 145 150 150 150 150 150 150 150 150 150 150 110 62 61 221 126 217 202 130 79 77 80 76 81 136 208 203 131 208 57 58 122 150 150 150 150 150 150 100 32 213 255 255 232 34 32 31 0 0 0 0 0 0 0 0 0 0 0 0 0 0 
0 0 0 0 0 0 0 0 0 0 0 0 0 0 31 32 49 250 255 255 193 32 110 150 150 150 150 150 147 52 61 104 125 146 90 81 118 147 132 141 138 102 76 112 150 124 73 68 84 150 150 150 150 150 150 150 150 150 150 150 148 133 149 74 112 45 148 136 144 150 150 150 150 150 150 150 150 150 150 150 110 60 82 101 115 77 94 133 150 150 150 150 149 129 91 78 116 103 83 57 122 150 150 150 150 150 150 137 33 141 255 255 254 85 32 31 0 0 0 0 0 0 0 0 0 0 0 0 0 0 
0 0 0 0 0 0 0 0 0 0 0 0 0 0 32 32 118 255 255 255 121 36 144 150 150 150 150 150 147 45 63 84 83 121 148 150 150 150 150 150 150 150 150 140 105 76 94 49 84 150 150 150 150 150 150 150 150 150 150 150 150 150 150 120 49 92 150 150 150 150 150 150 150 150 150 150 150 150 150 150 110 38 71 97 135 149 150 150 150 150 150 150 150 150 150 149 131 93 68 37 122 150 150 150 150 150 150 150 57 70 254 255 255 157 32 31 29 0 0 0 0 0 0 0 0 0 0 0 0 0 
0 0 0 0 0 0 0 0 0 0 0 0 0 28 31 32 192 255 255 251 53 69 150 150 150 150 150 150 147 86 124 148 150 150 150 150 150 150 150 150 150 150 150 150 150 150 142 107 108 150 150 150 150 150 150 150 150 150 150 150 150 150 150 150 150 150 150 150 150 150 150 150 150 150 150 150 150 150 150 150 137 137 149 150 150 150 150 150 150 150 150 150 150 150 150 150 150 150 149 134 140 150 150 150 150 150 150 150 96 32 219 255 255 228 34 32 31 0 0 0 0 0 0 0 0 0 0 0 0 0 
0 0 0 0 0 0 0 0 0 0 0 0 0 32 32 48 249 255 255 200 32 72 101 99 97 96 94 93 93 104 104 104 104 104 104 104 104 104 104 104 104 104 104 104 104 104 104 104 104 104 104 104 104 104 104 104 104 104 104 104 104 104 104 104 104 104 104 104 104 104 104 104 104 104 104 104 104 104 104 104 104 104 104 104 104 104 104 104 104 104 104 104 104 104 104 104 104 104 104 104 99 92 93 95 96 98 99 101 87 32 148 255 255 254 80 32 32 0 0 0 0 0 0 0 0 0 0 0 0 0 
0 0 0 0 0 0 0 0 0 0 0 0 0 31 32 116 255 255 255 128 37 110 112 113 114 115 115 115 105 35 36 45 45 45 45 45 45 45 45 45 45 45 45 45 45 45 45 45 45 45 45 45 45 45 45 45 45 45 45 45 45 45 45 45 37 36 51 51 51 51 51 51 51 51 51 51 51 51 51 51 51 51 51 51 51 51 51 51 51 51 51 51 51 51 51 51 51 51 47 32 66 115 115 115 115 114 113 112 110 55 77 254 255 255 152 32 32 24 0 0 0 0 0 0 0 0 0 0 0 0 
0 0 0 0 0 0 0 0 0 0 0 0 29 31 32 189 255 255 252 59 94 254 255 255 255 255 255 255 254 202 62 45 66 68 68 68 68 68 68 68 68 68 68 68 68 68 68 68 68 68 68 68 68 68 68 68 54 50 63 68 68 68 68 68 44 44 84 85 85 85 84 77 58 64 85 85 85 85 85 85 85 85 85 85 85 85 85 85 85 85 85 85 85 85 85 85 84 70 38 127 246 255 255 255 255 255 255 255 255 145 33 226 255 255 224 33 32 31 0 0 0 0 0 0 0 0 0 0 0 0 
0 0 0 0 0 0 0 0 0 0 0 0 30 32 47 248 255 255 207 32 166 255 255 255 255 255 255 255 255 255 243 119 37 59 68 68 68 68 68 68 68 68 68 68 68 68 68 68 68 68 68 68 68 68 68 68 58 69 69 50 68 68 68 56 91 88 68 85 85 84 58 70 68 71 85 85 85 85 85 85 85 85 85 85 85 85 85 85 85 85 85 85 85 85 85 82 54 56 193 255 255 255 255 255 255 255 255 255 255 217 32 155 255 255 255 76 32 31 0 0 0 0 0 0 0 0 0 0 0 0 
0 0 0 0 0 0 0 0 0 0 0 0 31 32 114 255 255 255 135 35 234 255 255 255 255 255 255 255 255 255 255 254 186 52 48 67 68 68 68 68 68 68 68 68 68 68 68 68 68 68 68 68 68 68 68 68 67 59 149 95 50 68 68 47 143 141 50 85 85 57 96 149 58 83 85 85 85 85 85 85 85 85 85 85 85 85 85 85 85 85 85 85 85 85 73 40 106 237 255 255 255 255 255 255 255 255 255 255 255 254 67 84 254 255 255 148 32 32 27 0 0 0 0 0 0 0 0 0 0 0 
0 0 0 0 0 0 0 0 0 0 0 31 32 32 187 255 255 254 64 88 254 255 255 255 255 255 255 255 255 255 255 255 255 235 101 38 61 68 68 68 68 68 68 68 68 68 68 68 68 65 47 44 51 62 68 68 68 45 141 149 73 61 63 79 150 150 76 77 73 75 149 140 50 85 85 84 76 60 49 75 85 85 85 85 85 85 85 85 85 85 85 85 84 59 46 172 254 255 255 255 255 255 255 255 255 255 255 255 255 255 137 34 233 255 255 221 32 32 30 0 0 0 0 0 0 0 0 0 0 0 
0 0 0 0 0 0 0 0 0 0 0 31 32 45 248 255 255 214 32 159 255 255 255 255 255 255 255 255 255 255 255 255 255 255 254 168 44 51 68 68 68 68 68 68 68 68 68 68 68 68 67 46 66 78 46 60 68 51 116 150 135 45 52 114 150 150 111 62 50 136 150 114 61 84 73 50 78 58 54 83 85 85 85 85 85 85 85 85 85 85 85 77 44 87 227 255 255 255 255 255 255 255 255 255 255 255 255 255 255 255 210 32 163 255 255 254 71 32 31 0 0 0 0 0 0 0 0 0 0 0 
0 0 0 0 0 0 0 0 0 0 0 31 32 112 255 255 255 141 33 226 255 255 255 255 255 255 255 255 255 255 255 255 255 255 255 255 225 85 40 63 68 68 68 68 68 68 68 68 68 68 68 68 47 104 139 71 51 59 92 150 150 67 41 141 150 150 138 46 68 150 150 90 72 60 73 139 90 58 84 85 85 85 85 85 85 85 85 85 85 84 64 40 150 252 255 255 255 255 255 255 255 255 255 255 255 255 255 255 255 255 253 59 92 255 255 255 143 32 32 21 0 0 0 0 0 0 0 0 0 0 
0 0 0 0 0 0 0 0 0 0 32 32 32 185 255 255 254 70 32 92 232 255 255 255 255 255 255 255 255 255 255 255 255 255 255 255 255 251 150 39 54 68 68 68 68 68 68 68 68 68 68 68 68 46 119 149 85 50 71 150 150 101 43 149 150 150 149 40 102 150 150 70 58 87 149 105 55 84 85 85 85 85 85 85 85 85 85 85 80 49 70 211 255 255 255 255 255 255 255 255 255 255 255 255 255 255 255 255 255 249 134 34 36 238 255 255 216 32 32 32 0 0 0 0 0 0 0 0 0 0 
0 0 0 0 0 0 0 0 0 0 32 32 44 246 255 255 220 32 51 49 50 189 254 255 255 255 255 255 255 255 255 255 255 255 255 255 255 255 254 212 71 43 65 68 68 68 68 68 68 68 68 68 68 66 49 141 149 63 54 150 150 126 55 150 150 150 150 52 128 150 150 52 65 149 130 49 84 85 85 85 85 85 85 85 85 85 84 69 39 129 247 255 255 255 255 255 255 255 255 255 255 255 255 255 255 255 255 255 218 75 47 67 32 170 255 255 254 67 32 32 0 0 0 0 0 0 0 0 0 0 
0 0 0 0 0 0 0 0 0 0 32 32 110 255 255 255 148 31 63 68 59 37 130 248 255 255 255 255 255 255 255 255 255 255 255 255 255 255 255 255 247 132 38 57 68 68 68 68 68 68 68 68 68 68 59 80 150 124 40 149 150 142 64 150 150 150 150 62 143 150 148 39 126 149 64 78 85 85 85 85 85 85 85 85 85 82 54 57 194 255 255 255 255 255 255 255 255 255 255 255 255 255 255 255 255 255 253 163 43 62 84 84 37 99 255 255 255 139 32 31 21 0 0 0 0 0 0 0 0 0 
0 0 0 0 0 0 0 0 0 28 31 32 183 255 255 254 77 38 68 68 68 65 43 76 221 255 255 255 255 255 255 255 255 255 255 255 255 255 255 255 255 255 197 59 46 66 68 68 68 68 68 68 68 68 68 45 136 149 49 145 150 146 64 150 150 150 150 63 148 150 144 51 149 120 56 85 85 85 85 85 85 85 85 85 73 40 108 238 255 255 255 255 255 255 255 255 255 255 255 255 255 255 255 255 255 236 100 41 75 85 85 85 53 40 242 255 255 211 32 32 31 0 0 0 0 0 0 0 0 0 
0 0 0 0 0 0 0 0 0 32 32 43 245 255 255 226 33 50 68 68 68 68 68 52 44 171 254 255 255 255 255 255 255 255 255 255 255 255 255 255 255 255 255 241 113 37 59 68 68 68 68 68 68 68 68 58 91 150 73 139 149 146 58 131 126 125 129 57 145 149 137 75 150 76 78 85 85 85 85 85 85 85 84 59 47 175 254 255 255 255 255 255 255 255 255 255 255 255 255 255 255 255 255 254 191 53 55 83 85 85 85 85 70 32 178 255 255 253 63 32 31 0 0 0 0 0 0 0 0 0 
0 0 0 0 0 0 0 0 0 32 32 108 255 255 255 155 31 62 68 68 68 68 68 68 61 38 112 242 255 255 255 255 255 255 255 255 255 255 255 255 255 255 255 255 254 181 50 49 67 68 68 68 68 68 68 68 60 146 69 69 64 67 76 84 69 55 83 78 68 63 64 67 142 53 85 85 85 85 85 85 85 77 44 89 228 255 255 255 255 255 255 255 255 255 255 255 255 255 255 255 255 255 247 128 39 70 85 85 85 85 85 85 83 35 106 255 255 255 134 32 32 23 0 0 0 0 0 0 0 0 
0 0 0 0 0 0 0 0 30 31 32 181 255 255 254 84 37 68 68 68 68 68 68 68 68 66 45 64 208 255 255 255 255 255 255 255 255 255 255 255 255 255 255 255 255 255 232 96 39 62 68 68 68 68 68 68 44 61 99 128 101 101 146 144 102 141 105 150 119 109 110 107 63 47 85 85 85 85 85 84 64 41 153 252 255 255 255 255 255 255 255 255 255 255 255 255 255 255 255 255 255 215 71 48 80 85 85 85 85 85 85 85 85 51 43 246 255 255 207 32 32 30 0 0 0 0 0 0 0 0 
0 0 0 0 0 0 0 0 31 32 42 245 255 255 231 34 49 68 68 68 68 68 68 68 68 68 68 55 39 153 253 255 255 255 255 255 255 255 255 255 255 255 255 255 255 255 255 253 163 43 52 68 68 68 68 68 42 84 120 141 101 98 140 136 94 89 122 141 107 111 110 149 98 41 85 85 85 85 79 48 72 214 255 255 255 255 255 255 255 255 255 255 255 255 255 255 255 255 255 253 157 41 63 84 85 85 85 85 85 85 85 85 85 68 32 185 255 255 253 59 32 32 0 0 0 0 0 0 0 0 
0 0 0 0 0 0 0 0 31 32 106 255 255 255 162 31 61 68 68 68 68 68 68 68 68 68 68 68 63 40 94 234 255 255 255 255 255 255 255 255 255 255 255 255 255 255 255 255 255 221 81 41 64 68 68 68 42 92 82 82 66 66 71 79 83 83 80 73 66 61 77 107 92 46 85 85 85 68 39 131 247 255 255 255 255 255 255 255 255 255 255 255 255 255 255 255 255 255 232 95 42 76 85 85 85 85 85 85 85 85 85 85 85 82 34 113 255 255 255 130 32 32 32 0 0 0 0 0 0 0 
0 0 0 0 0 0 0 31 31 32 179 255 255 255 91 37 68 68 68 68 68 68 68 68 68 68 68 67 68 67 48 53 192 255 255 255 255 255 255 255 255 255 255 255 255 255 255 255 255 255 250 144 38 55 68 68 42 59 93 112 97 75 65 64 65 66 65 65 77 100 119 102 54 42 85 82 53 58 196 254 255 255 255 255 255 255 255 255 255 255 255 255 255 255 255 255 255 186 51 56 83 85 85 85 85 85 85 85 85 85 85 85 85 85 50 46 250 255 255 202 32 32 32 0 0 0 0 0 0 0 
0 0 0 0 0 0 0 31 32 41 244 255 255 237 35 48 68 68 68 68 68 68 68 68 68 67 48 45 67 68 68 58 37 134 249 255 255 255 255 255 255 255 255 255 255 255 255 255 255 255 255 255 208 67 44 65 42 135 78 77 113 138 149 149 149 149 149 148 136 111 75 80 146 47 73 40 110 240 255 255 255 255 255 255 255 255 255 255 255 255 255 255 255 255 255 245 122 39 71 84 85 85 76 47 83 85 85 85 85 85 85 85 85 85 67 32 192 255 255 252 55 32 31 0 0 0 0 0 0 0 
0 0 0 0 0 0 0 31 32 104 255 255 255 169 31 59 68 68 68 68 68 68 68 63 49 90 179 195 69 51 67 68 65 42 79 223 255 255 255 255 255 255 255 255 255 255 255 255 255 255 255 255 255 245 126 37 45 60 44 78 110 131 143 148 150 150 148 142 129 108 77 50 72 34 48 176 254 255 255 255 255 255 255 255 255 255 255 255 255 255 255 255 255 255 210 67 50 80 85 84 70 54 97 168 57 68 84 85 85 85 85 85 85 85 81 34 121 255 255 255 125 32 31 0 0 0 0 0 0 0 
0 0 0 0 0 0 28 31 32 177 255 255 255 97 35 68 68 68 68 68 68 68 59 86 222 234 247 254 243 180 55 65 68 68 51 45 175 254 255 255 255 255 255 255 255 255 255 255 255 255 255 255 255 255 254 192 55 43 48 39 32 32 33 37 41 40 37 33 32 32 39 46 34 90 229 255 255 255 255 255 255 255 255 255 255 255 255 255 255 255 255 255 252 151 40 65 84 85 83 55 141 234 226 234 218 152 56 81 85 85 85 85 85 85 85 48 53 251 255 255 198 32 31 30 0 0 0 0 0 0 
0 0 0 0 0 0 32 32 40 242 255 255 241 39 47 68 68 68 68 68 68 68 68 245 255 146 255 255 180 255 207 49 68 68 68 61 37 116 244 255 255 255 255 255 255 255 255 255 255 255 255 255 255 255 255 255 238 108 38 60 67 62 57 55 42 39 65 68 73 81 63 41 155 253 255 255 255 255 255 255 255 255 255 255 255 255 255 255 255 255 255 229 90 44 77 85 85 85 57 185 255 186 244 255 182 244 207 56 84 85 85 85 85 85 85 65 32 200 255 255 250 52 32 31 0 0 0 0 0 0 
0 0 0 0 0 0 32 32 102 255 255 255 175 32 59 68 68 68 68 68 68 65 111 255 255 104 241 252 100 255 255 86 68 68 68 68 66 45 66 211 255 255 255 255 255 255 255 255 255 255 255 255 255 255 255 255 255 254 175 47 50 68 68 68 48 45 85 85 79 48 74 215 255 255 255 255 255 255 255 255 255 255 255 255 255 255 255 255 255 254 180 49 57 83 85 85 85 85 70 255 255 138 235 255 152 217 255 123 77 85 85 85 85 85 85 80 33 128 255 255 255 121 32 32 0 0 0 0 0 0 
0 0 0 0 0 28 31 32 175 255 255 255 104 34 68 68 68 68 61 62 68 68 52 199 255 209 95 95 185 255 223 54 68 68 68 68 68 68 55 40 157 253 255 255 255 255 255 255 255 255 255 255 255 255 255 255 255 255 255 229 91 40 62 68 48 45 84 68 39 133 248 255 255 255 255 255 255 255 255 255 255 255 255 255 255 255 255 255 243 117 40 72 85 85 84 84 85 85 55 205 255 213 94 138 105 253 254 104 78 85 85 85 85 85 85 84 46 59 252 255 255 193 32 32 28 0 0 0 0 0 
0 0 0 0 0 30 32 39 241 255 255 244 42 45 68 68 62 59 139 119 51 68 66 49 121 241 254 254 235 141 53 64 68 65 49 47 56 68 68 62 39 98 236 255 255 255 255 255 255 255 255 255 255 255 255 255 255 255 255 255 253 157 41 53 48 42 53 59 198 254 255 255 255 255 255 255 255 255 255 255 255 255 255 255 255 255 255 206 64 50 81 85 84 61 75 86 60 84 81 56 149 247 239 213 252 220 109 62 84 84 73 63 74 84 85 85 63 32 207 255 255 249 49 32 32 0 0 0 0 0 
0 0 0 0 0 32 32 100 255 255 255 182 32 57 68 62 82 237 255 254 107 64 68 68 60 119 255 247 63 59 68 68 68 51 200 239 157 52 66 68 67 48 55 196 255 255 255 255 255 255 255 255 255 255 255 255 255 255 255 255 255 255 217 76 33 32 112 241 255 255 255 255 255 255 255 255 255 255 255 255 255 255 255 255 255 251 146 39 66 84 85 84 55 164 253 254 125 73 85 84 67 98 255 255 146 53 75 85 85 67 112 189 127 55 82 85 79 33 135 255 255 255 116 32 31 0 0 0 0 0 
0 0 0 0 30 31 32 173 255 255 255 111 34 67 67 53 230 255 255 255 184 54 68 68 60 129 255 235 45 68 68 68 64 115 255 255 255 203 49 68 68 68 57 37 138 250 255 255 255 255 255 255 255 255 255 255 255 255 255 255 255 255 255 249 141 178 254 255 255 255 255 255 255 255 255 255 255 255 255 255 255 255 255 255 227 85 44 78 85 85 85 64 154 255 255 255 221 54 85 85 84 66 255 255 69 84 85 85 84 62 248 255 255 198 56 84 84 44 65 254 255 255 189 32 32 31 0 0 0 0 
0 0 0 0 31 32 37 241 255 255 248 45 45 63 52 193 246 254 255 246 238 48 68 60 79 241 255 254 99 62 68 68 57 162 255 254 255 254 168 48 61 68 68 65 41 82 226 255 255 255 255 255 255 255 255 255 255 255 255 255 255 255 255 255 255 255 255 255 255 255 255 255 255 255 255 255 255 255 255 255 255 255 254 175 47 59 84 85 85 84 58 102 251 254 255 254 253 65 84 84 54 181 255 255 120 73 85 85 83 103 255 255 255 255 169 54 78 61 32 215 255 255 249 45 32 31 0 0 0 0 
0 0 0 0 31 32 98 255 255 255 189 32 57 67 50 235 151 254 255 155 253 162 72 115 240 255 255 255 234 75 53 60 47 219 241 221 255 246 218 107 60 68 68 68 68 51 47 179 254 255 255 255 255 255 255 255 255 255 255 255 255 255 255 255 255 255 255 255 255 255 255 255 255 255 255 255 255 255 255 255 255 241 111 39 73 85 85 85 85 84 49 215 188 249 255 201 239 162 51 58 178 255 255 255 237 71 70 83 67 149 255 231 255 254 231 148 56 78 32 142 255 255 255 112 32 32 0 0 0 0 
0 0 0 30 31 32 171 255 255 255 117 33 66 68 53 189 107 236 251 94 252 255 255 255 255 251 253 255 254 247 185 147 203 255 194 170 255 211 152 59 68 68 68 68 68 68 60 38 120 245 255 255 255 255 255 255 255 255 255 255 255 255 255 255 255 255 255 255 255 255 255 255 255 255 255 255 255 255 255 255 202 61 52 81 85 85 85 85 85 85 72 146 139 214 255 141 212 255 237 247 255 255 253 254 254 238 146 97 124 244 245 137 255 253 130 108 81 84 42 79 255 255 255 184 32 32 29 0 0 0 
0 0 0 31 32 38 239 255 255 243 41 44 68 68 59 152 217 98 95 186 189 157 244 255 254 210 255 255 255 227 253 255 255 255 239 91 182 102 208 50 68 68 68 68 68 68 68 65 44 69 214 255 255 255 255 255 255 255 255 255 255 255 255 255 255 255 255 255 255 255 255 255 255 255 255 255 255 255 250 140 39 67 84 85 85 85 85 85 85 85 79 116 221 91 131 106 242 207 251 255 255 227 251 255 255 242 247 255 255 255 251 92 231 184 136 92 85 85 56 37 245 255 255 246 43 32 31 0 0 0 
0 0 0 31 32 96 255 255 255 189 32 57 68 68 67 74 251 255 255 175 47 57 87 249 248 159 255 255 255 207 220 254 198 165 245 232 169 218 210 49 68 68 68 68 68 68 68 68 68 54 41 161 253 255 255 255 255 255 255 255 255 255 255 255 255 255 255 255 255 255 255 255 255 255 255 255 255 222 80 45 78 85 85 85 85 85 85 85 85 85 85 62 247 245 221 239 74 57 90 247 255 169 255 255 255 252 189 255 248 213 251 217 118 141 245 65 85 85 66 32 209 255 255 255 107 32 31 0 0 0 
0 0 28 31 32 169 255 255 255 146 31 65 68 68 68 55 122 231 164 50 68 68 56 153 247 107 255 255 255 139 221 188 47 55 87 245 255 255 113 63 68 68 68 68 68 68 68 68 68 68 63 39 102 238 255 255 255 255 255 255 255 255 255 255 255 255 255 255 255 255 255 255 255 255 255 254 170 45 61 84 85 85 85 85 85 85 85 85 85 85 85 68 126 253 239 90 73 85 69 132 255 109 255 255 255 211 162 244 79 56 90 244 255 255 193 58 85 85 73 32 177 255 255 255 179 32 31 31 0 0 
0 0 32 32 37 237 255 255 255 121 34 68 68 68 68 68 58 47 54 68 68 68 68 94 254 113 202 254 217 98 253 88 67 68 59 77 176 132 51 68 68 68 68 68 68 68 68 68 68 68 68 67 43 57 223 255 255 255 255 255 255 255 255 255 255 255 255 255 255 255 255 255 255 255 239 106 40 74 85 85 85 85 85 85 85 85 85 85 85 85 85 84 64 67 58 74 85 85 84 62 253 129 202 255 254 113 219 153 68 85 72 87 218 216 69 81 85 85 79 32 156 255 255 255 243 41 32 32 0 0 
0 0 32 32 94 255 255 255 255 113 35 68 68 68 68 68 68 68 68 68 68 68 68 87 255 242 124 101 117 234 255 67 68 68 68 65 55 60 68 68 68 68 68 68 68 68 68 68 68 68 68 52 43 166 254 255 255 255 255 255 255 255 255 255 255 255 255 255 255 255 255 255 255 255 212 68 48 79 85 85 85 85 85 85 85 85 85 85 85 85 85 85 85 85 85 85 85 85 85 54 248 242 105 117 98 167 255 114 80 85 85 77 55 55 79 85 85 85 82 32 143 255 255 255 255 103 32 32 0 0 
0 28 31 32 167 255 255 255 255 123 33 68 68 68 68 68 68 68 68 68 68 68 62 122 255 255 255 255 255 255 255 80 68 68 68 68 68 68 68 68 68 68 68 68 68 68 68 68 68 64 41 79 221 255 255 255 255 255 255 255 255 255 255 255 255 255 255 255 255 255 255 255 255 255 255 246 131 39 67 84 85 85 85 85 85 85 85 85 85 85 85 85 85 85 85 85 85 85 84 66 254 255 254 236 247 255 255 119 79 85 85 85 85 85 85 85 85 85 82 32 142 255 255 255 255 175 32 31 29 0 
0 31 32 36 236 255 255 255 255 151 31 65 68 68 68 68 68 68 54 50 53 46 66 224 255 254 243 238 254 255 255 166 46 47 56 51 56 68 68 68 68 68 68 68 68 68 68 68 57 37 139 250 255 255 255 255 255 255 255 255 255 255 255 255 255 255 255 255 255 255 255 255 255 255 255 255 255 200 62 50 80 85 85 85 85 85 85 85 85 85 85 85 85 85 80 62 58 62 56 150 255 255 255 255 255 255 255 180 55 67 59 58 72 84 85 85 85 85 79 32 153 255 255 255 255 241 38 32 31 0 
0 31 32 92 255 255 255 255 255 196 32 57 68 68 68 68 68 58 129 250 254 243 253 255 244 106 47 46 61 149 254 255 231 233 254 250 116 60 68 68 68 68 68 68 68 68 66 45 60 201 255 255 255 255 255 255 255 255 255 255 255 255 255 255 255 255 255 255 255 255 255 255 255 255 255 255 255 255 244 123 39 69 84 85 85 85 85 85 85 85 85 85 85 82 67 189 212 192 206 254 255 191 94 75 101 174 254 254 190 168 205 211 114 68 85 85 85 85 73 32 176 255 255 255 255 255 98 32 31 0 
28 31 32 165 255 255 255 255 255 247 45 44 68 68 68 68 68 52 199 255 234 254 244 247 172 54 68 68 68 47 213 254 255 254 255 255 194 53 68 68 68 68 68 68 68 60 37 112 241 255 255 255 255 255 255 255 255 255 255 255 255 255 255 255 255 255 255 255 255 255 255 255 255 255 255 255 255 255 255 255 193 58 52 81 85 85 85 85 85 85 85 85 85 73 144 255 247 254 252 250 232 51 82 85 82 56 179 255 255 255 255 255 238 50 85 85 85 85 64 32 214 255 255 255 255 255 170 32 31 28 
31 32 35 235 255 255 255 255 255 255 119 33 65 68 68 68 68 57 164 228 185 255 251 165 214 48 68 68 68 50 236 220 255 253 205 255 174 55 68 68 68 68 68 68 50 46 176 254 255 255 255 255 255 255 255 255 255 255 255 255 255 255 255 255 255 255 255 255 255 255 255 255 255 255 255 255 255 255 255 255 255 240 115 39 71 84 85 85 85 85 85 85 85 77 127 254 180 255 254 183 238 53 84 85 85 64 174 238 254 254 226 255 236 51 85 85 85 85 50 48 251 255 255 255 255 255 238 37 32 30 
31 32 90 254 255 255 255 255 255 255 218 34 47 68 68 68 68 66 86 222 122 254 196 150 254 119 61 68 61 128 255 131 255 255 118 254 99 65 68 68 68 68 63 40 86 227 255 255 255 255 255 255 255 255 255 255 255 255 255 255 255 255 255 255 237 253 255 255 255 255 255 255 255 255 255 255 255 255 255 255 255 255 255 186 53 54 82 85 85 85 85 85 85 84 67 248 108 254 251 110 255 137 70 85 84 66 248 154 254 255 142 249 172 65 85 85 85 80 34 115 255 255 255 255 255 255 255 94 32 32 
32 32 86 238 255 255 255 255 255 255 254 118 32 60 68 68 68 68 50 194 149 98 108 240 255 212 49 68 52 195 255 105 192 173 129 187 50 68 68 68 68 55 39 148 251 255 255 255 255 255 255 255 255 255 255 255 255 255 255 255 255 255 254 169 45 97 231 255 255 255 255 255 255 255 255 255 255 255 255 255 255 255 255 255 236 106 40 73 85 85 85 85 85 85 62 171 142 119 103 181 255 241 54 85 75 134 255 122 211 244 93 239 68 82 85 85 85 57 32 208 255 255 255 255 255 255 252 116 32 31 
31 32 32 57 199 254 255 255 255 255 255 237 54 37 66 68 68 68 62 129 226 246 254 255 254 193 50 68 55 162 254 241 153 163 239 92 67 68 68 65 44 66 208 255 255 255 255 255 255 255 255 255 255 255 255 255 255 255 255 255 255 234 100 38 42 34 49 178 254 255 255 255 255 255 255 255 255 255 255 255 255 255 255 255 255 254 178 50 56 83 85 85 85 85 83 94 254 227 235 255 255 251 61 85 74 136 255 237 117 104 204 155 68 85 85 85 74 33 104 254 255 255 255 255 255 233 93 32 32 31 
8 31 31 32 34 139 250 255 255 255 255 255 196 35 42 67 68 68 51 42 48 47 84 105 89 49 66 68 68 49 100 133 118 63 44 42 68 68 59 37 121 245 255 255 255 255 255 255 255 255 255 255 255 255 255 255 255 255 255 254 183 51 48 67 48 45 72 39 110 239 255 255 255 255 255 255 255 255 255 255 255 255 255 255 255 255 255 233 99 41 73 85 85 85 83 47 70 82 127 159 151 85 68 85 84 56 138 187 182 129 84 55 77 85 85 77 37 54 233 255 255 255 255 254 189 51 32 32 31 27 
0 0 32 32 32 32 82 226 255 255 255 255 255 161 32 44 67 68 64 68 68 68 68 67 68 68 68 68 68 68 66 62 65 68 68 68 67 48 51 185 254 255 255 255 255 255 255 255 255 255 255 255 255 255 255 255 255 255 241 115 37 59 68 68 48 45 85 82 53 57 192 255 255 255 255 255 255 255 255 255 255 255 255 255 255 255 255 255 254 170 47 58 83 85 85 84 85 84 77 70 72 82 85 85 85 84 73 64 65 76 84 81 84 85 71 36 47 209 255 255 255 255 248 128 33 32 31 30 0 0 
0 0 0 32 31 31 32 46 177 254 255 255 255 254 148 32 42 65 68 68 68 68 68 68 68 68 68 68 68 68 68 68 68 68 68 63 39 95 233 255 255 255 255 255 255 255 255 255 255 255 255 255 255 255 255 255 254 198 60 45 66 68 68 68 48 45 85 85 84 69 39 125 245 255 255 255 255 255 255 255 255 255 255 255 255 255 255 255 255 255 228 92 42 75 85 85 85 85 85 85 85 85 85 85 85 85 85 85 85 85 85 85 84 59 33 63 216 255 255 255 255 219 74 32 32 31 29 0 0 0 
0 0 0 0 0 31 32 32 32 116 243 255 255 255 254 162 36 37 60 68 68 68 68 68 68 68 68 68 68 68 68 68 68 68 53 41 158 253 255 255 255 255 255 255 255 255 255 255 255 255 255 255 255 255 255 247 130 37 56 68 68 68 68 68 44 45 85 85 85 85 80 50 65 205 255 255 255 255 255 255 255 255 255 255 255 255 255 255 255 255 255 253 162 44 60 84 85 85 85 85 85 85 85 85 85 85 85 85 85 85 85 78 45 32 102 238 255 255 255 254 166 41 32 31 32 28 0 0 0 0 
0 0 0 0 0 0 30 32 32 32 66 210 255 255 255 255 199 57 32 51 68 68 68 68 68 68 68 68 68 68 68 68 65 43 73 216 255 255 255 255 255 255 255 255 255 255 255 255 255 255 255 255 255 255 210 70 43 65 68 68 68 68 63 49 82 42 81 85 85 85 85 84 66 39 140 249 255 255 255 255 255 255 255 255 255 255 255 255 255 255 255 255 255 223 85 44 76 85 85 85 85 85 85 85 85 85 85 85 85 84 67 36 40 163 253 255 255 255 239 105 32 32 31 31 0 0 0 0 0 0 
0 0 0 0 0 0 0 20 31 31 32 38 154 253 255 255 255 238 101 32 42 65 68 68 68 68 68 68 68 68 68 57 37 131 247 255 255 255 255 255 255 255 255 255 255 255 255 255 255 255 255 255 251 146 39 54 68 68 68 68 63 52 127 198 251 188 91 59 84 85 85 85 85 78 46 76 217 255 255 255 255 255 255 255 255 255 255 255 255 255 255 255 255 255 252 153 41 62 84 85 85 85 85 85 85 85 85 85 82 53 32 72 217 255 255 255 255 201 59 32 32 32 30 0 0 0 0 0 0 0 
0 0 0 0 0 0 0 0 0 30 32 32 32 94 233 255 255 255 254 160 39 35 57 68 68 68 68 68 68 67 47 55 194 254 255 255 255 255 255 255 255 255 255 255 255 255 255 255 255 255 255 221 81 41 64 68 68 68 68 64 73 226 248 211 254 219 238 171 55 84 85 85 85 85 84 62 41 155 252 255 255 255 255 255 255 255 255 255 255 255 255 255 255 255 255 255 218 79 45 78 85 85 85 85 85 85 85 75 40 33 126 247 255 255 255 251 142 35 32 31 31 32 0 0 0 0 0 0 0 0 
0 0 0 0 0 0 0 0 0 0 30 32 32 32 52 190 255 255 255 255 213 68 31 48 67 68 68 68 61 37 104 237 255 255 255 255 255 255 255 255 255 255 255 255 255 255 255 255 255 253 162 43 52 68 68 68 68 68 68 48 208 255 190 205 255 229 165 255 140 71 85 85 85 85 85 85 76 43 89 227 255 255 255 255 255 255 255 255 255 255 255 255 255 255 255 255 255 250 145 40 63 84 85 85 85 84 62 34 50 186 255 255 255 255 227 85 32 32 32 31 0 0 0 0 0 0 0 0 0 0 
0 0 0 0 0 0 0 0 0 0 0 0 32 31 32 33 131 249 255 255 255 245 119 32 39 62 68 51 43 168 254 255 255 255 255 255 255 255 255 255 255 255 255 255 255 255 255 255 231 95 39 62 68 68 68 68 68 68 68 49 208 255 220 108 234 127 196 255 189 62 85 85 85 85 85 85 85 83 59 46 170 254 255 255 255 255 255 255 255 255 255 255 255 255 255 255 255 255 255 211 72 47 78 85 80 48 32 90 231 255 255 255 254 179 47 32 32 31 29 0 0 0 0 0 0 0 0 0 0 0 
0 0 0 0 0 0 0 0 0 0 0 0 0 29 31 32 32 76 220 255 255 255 254 178 46 33 40 80 223 255 255 255 255 255 255 255 255 255 255 255 255 255 255 255 255 255 254 177 48 49 67 68 68 68 67 54 48 59 68 65 66 207 254 192 119 177 254 227 79 78 85 84 83 84 85 85 85 85 85 73 40 102 235 255 255 255 255 255 255 255 255 255 255 255 255 255 255 255 255 255 248 137 39 59 37 37 149 252 255 255 255 244 118 32 32 32 31 0 0 0 0 0 0 0 0 0 0 0 0 0 
0 0 0 0 0 0 0 0 0 0 0 0 0 0 26 32 31 32 43 169 254 255 255 255 225 82 32 111 243 255 255 255 255 255 255 255 255 255 255 255 255 255 255 255 255 238 110 38 60 68 68 68 68 63 60 176 223 108 59 68 65 48 124 253 255 238 118 56 77 85 83 56 96 70 63 84 85 85 85 85 82 55 53 185 254 255 255 255 255 255 255 255 255 255 255 255 255 255 255 255 255 249 101 32 63 206 255 255 255 255 211 67 32 32 31 30 0 0 0 0 0 0 0 0 0 0 0 0 0 0 
0 0 0 0 0 0 0 0 0 0 0 0 0 0 0 0 30 31 32 32 108 241 255 255 255 250 137 34 65 210 255 255 255 255 255 255 255 255 255 255 255 255 255 255 192 56 47 66 68 68 68 68 67 60 227 255 255 239 51 68 68 68 47 219 255 127 73 85 85 85 63 166 255 251 154 56 84 85 85 85 85 84 71 39 117 242 255 255 255 255 255 255 255 255 255 255 255 255 255 255 220 77 32 112 242 255 255 255 253 155 38 32 31 31 20 0 0 0 0 0 0 0 0 0 0 0 0 0 0 0 
0 0 0 0 0 0 0 0 0 0 0 0 0 0 0 0 0 29 31 32 32 60 203 255 255 255 254 195 54 38 155 253 255 255 255 255 255 255 255 255 255 255 245 124 36 58 68 68 68 68 68 66 48 187 255 255 255 255 89 68 68 64 69 249 255 137 73 85 85 85 54 246 255 255 254 153 62 84 85 85 85 85 85 81 51 61 199 254 255 255 255 255 255 255 255 255 255 255 254 166 42 44 173 254 255 255 255 234 96 32 32 32 32 0 0 0 0 0 0 0 0 0 0 0 0 0 0 0 0 0 
0 0 0 0 0 0 0 0 0 0 0 0 0 0 0 0 0 0 28 32 31 32 36 145 251 255 255 255 235 98 32 97 235 255 255 255 255 255 255 255 255 205 65 44 65 68 68 68 68 68 68 43 152 248 231 255 249 232 158 52 58 65 224 255 255 233 61 80 85 84 76 255 251 254 255 250 143 45 84 85 85 85 85 85 84 67 39 132 247 255 255 255 255 255 255 255 255 237 103 32 80 223 255 255 255 254 191 53 32 32 32 29 0 0 0 0 0 0 0 0 0 0 0 0 0 0 0 0 0 0 
0 0 0 0 0 0 0 0 0 0 0 0 0 0 0 0 0 0 0 0 30 31 32 32 88 229 255 255 255 253 156 38 54 195 255 255 255 255 255 250 140 38 56 68 68 68 68 68 68 68 68 64 112 196 181 255 222 155 251 162 152 234 255 255 254 254 212 82 52 51 165 255 167 255 255 171 189 60 85 85 85 85 85 85 85 85 79 48 71 212 255 255 255 255 255 255 194 56 34 135 249 255 255 255 249 131 33 32 31 32 0 0 0 0 0 0 0 0 0 0 0 0 0 0 0 0 0 0 0 0 
0 0 0 0 0 0 0 0 0 0 0 0 0 0 0 0 0 0 0 0 0 27 32 32 32 48 183 254 255 255 255 210 65 34 135 250 255 255 217 76 42 64 68 68 68 68 68 68 68 68 68 68 79 226 102 225 126 193 255 255 255 255 253 242 254 254 251 250 232 234 254 255 100 249 254 97 152 72 85 85 85 85 85 85 85 85 85 84 64 40 147 251 255 255 248 131 33 55 195 254 255 255 255 220 76 32 32 31 29 0 0 0 0 0 0 0 0 0 0 0 0 0 0 0 0 0 0 0 0 0 
0 0 0 0 0 0 0 0 0 0 0 0 0 0 0 0 0 0 0 0 0 0 0 31 32 32 32 122 246 255 255 255 243 115 32 81 222 156 41 53 68 68 68 68 68 68 68 68 68 68 68 68 49 240 202 128 183 191 80 134 252 255 195 252 255 255 254 208 255 255 255 255 192 94 100 168 132 76 85 85 85 85 85 85 85 85 85 85 85 78 45 82 222 216 74 32 100 236 255 255 255 254 169 42 32 31 32 26 0 0 0 0 0 0 0 0 0 0 0 0 0 0 0 0 0 0 0 0 0 0 
0 0 0 0 0 0 0 0 0 0 0 0 0 0 0 0 0 0 0 0 0 0 0 0 31 32 32 32 70 214 255 255 255 254 174 44 35 36 62 68 68 68 68 68 68 68 68 68 68 68 68 68 57 139 255 255 210 52 67 55 138 255 137 248 255 255 254 149 255 198 89 138 252 249 246 253 76 84 85 85 85 85 85 85 85 85 85 85 85 85 84 61 43 40 39 160 253 255 255 255 240 108 32 32 31 30 0 0 0 0 0 0 0 0 0 0 0 0 0 0 0 0 0 0 0 0 0 0 0 0 
0 0 0 0 0 0 0 0 0 0 0 0 0 0 0 0 0 0 0 0 0 0 0 0 0 22 32 31 32 40 160 253 255 255 255 223 78 31 45 66 68 68 68 68 68 68 68 68 68 68 68 68 68 50 128 142 54 65 68 68 48 235 151 194 255 255 214 132 237 58 82 65 119 251 255 169 61 85 85 85 85 85 85 85 85 85 85 85 85 85 83 54 32 69 214 255 255 255 254 203 60 32 32 31 30 0 0 0 0 0 0 0 0 0 0 0 0 0 0 0 0 0 0 0 0 0 0 0 0 0 
0 0 0 0 0 0 0 0 0 0 0 0 0 0 0 0 0 0 0 0 0 0 0 0 0 0 0 30 32 32 32 100 237 255 255 255 249 132 33 37 61 68 68 68 68 68 68 68 68 68 68 68 68 68 61 60 68 68 68 68 51 201 237 91 193 197 92 229 179 65 85 85 67 75 103 56 84 85 85 85 85 85 85 85 85 85 85 85 85 75 41 32 122 245 255 255 255 251 145 36 32 31 32 28 0 0 0 0 0 0 0 0 0 0 0 0 0 0 0 0 0 0 0 0 0 0 0 0 0 0 
0 0 0 0 0 0 0 0 0 0 0 0 0 0 0 0 0 0 0 0 0 0 0 0 0 0 0 0 27 31 32 32 56 196 255 255 255 255 191 52 33 52 68 68 68 68 68 68 68 68 68 68 68 68 68 68 68 68 68 68 50 207 255 237 156 152 232 255 167 68 85 85 85 84 82 85 85 85 85 85 85 85 85 85 85 85 85 84 63 34 48 183 254 255 255 255 228 87 32 32 31 30 0 0 0 0 0 0 0 0 0 0 0 0 0 0 0 0 0 0 0 0 0 0 0 0 0 0 0 0 
0 0 0 0 0 0 0 0 0 0 0 0 0 0 0 0 0 0 0 0 0 0 0 0 0 0 0 0 0 0 32 31 32 34 137 250 255 255 255 233 94 32 42 65 68 68 68 68 68 68 68 68 68 68 68 68 68 65 67 66 56 246 255 255 255 255 255 255 199 58 84 82 78 83 85 85 85 85 85 85 85 85 85 85 85 85 80 49 32 87 229 255 255 255 254 182 48 32 31 31 28 0 0 0 0 0 0 0 0 0 0 0 0 0 0 0 0 0 0 0 0 0 0 0 0 0 0 0 0 0 
0 0 0 0 0 0 0 0 0 0 0 0 0 0 0 0 0 0 0 0 0 0 0 0 0 0 0 0 0 0 0 30 32 32 32 81 224 255 255 255 253 152 37 35 59 68 68 68 68 68 68 68 68 68 68 56 80 120 106 101 202 255 254 202 157 180 234 255 253 132 79 107 124 77 71 85 85 85 85 85 85 85 85 85 85 71 38 36 145 252 255 255 255 245 121 32 32 32 31 0 0 0 0 0 0 0 0 0 0 0 0 0 0 0 0 0 0 0 0 0 0 0 0 0 0 0 0 0 0 0 
0 0 0 0 0 0 0 0 0 0 0 0 0 0 0 0 0 0 0 0 0 0 0 0 0 0 0 0 0 0 0 0 24 32 32 32 45 175 254 255 255 255 207 63 32 49 68 68 68 68 68 68 68 68 68 72 252 255 254 254 255 255 122 49 43 39 53 179 255 255 255 255 255 247 63 85 85 85 85 85 85 85 85 84 57 32 61 203 255 255 255 255 213 69 32 32 31 28 0 0 0 0 0 0 0 0 0 0 0 0 0 0 0 0 0 0 0 0 0 0 0 0 0 0 0 0 0 0 0 0 
0 0 0 0 0 0 0 0 0 0 0 0 0 0 0 0 0 0 0 0 0 0 0 0 0 0 0 0 0 0 0 0 0 0 30 32 32 32 114 243 255 255 255 242 110 32 40 64 68 68 68 68 68 68 68 89 255 217 251 254 213 255 63 68 48 45 82 102 254 253 255 249 255 255 84 85 85 85 85 85 85 85 78 44 32 108 240 255 255 255 253 158 39 32 31 31 22 0 0 0 0 0 0 0 0 0 0 0 0 0 0 0 0 0 0 0 0 0 0 0 0 0 0 0 0 0 0 0 0 0 
0 0 0 0 0 0 0 0 0 0 0 0 0 0 0 0 0 0 0 0 0 0 0 0 0 0 0 0 0 0 0 0 0 0 0 31 32 32 32 64 208 255 255 255 254 170 42 34 56 68 68 68 68 68 68 53 246 132 254 255 140 247 139 57 48 45 63 170 199 248 255 198 230 249 58 85 85 85 85 85 84 67 35 42 169 254 255 255 255 235 98 32 32 32 31 0 0 0 0 0 0 0 0 0 0 0 0 0 0 0 0 0 0 0 0 0 0 0 0 0 0 0 0 0 0 0 0 0 0 0 
0 0 0 0 0 0 0 0 0 0 0 0 0 0 0 0 0 0 0 0 0 0 0 0 0 0 0 0 0 0 0 0 0 0 0 0 21 32 31 32 37 152 253 255 255 255 220 75 31 46 67 68 68 68 68 55 163 135 177 214 95 253 245 58 48 45 63 251 152 209 255 157 197 165 64 85 85 85 85 82 52 32 76 220 255 255 255 255 194 54 32 32 31 29 0 0 0 0 0 0 0 0 0 0 0 0 0 0 0 0 0 0 0 0 0 0 0 0 0 0 0 0 0 0 0 0 0 0 0 0 
0 0 0 0 0 0 0 0 0 0 0 0 0 0 0 0 0 0 0 0 0 0 0 0 0 0 0 0 0 0 0 0 0 0 0 0 0 0 30 32 32 32 93 233 255 255 255 248 128 33 38 62 68 68 68 68 64 247 152 134 228 255 255 109 46 44 94 255 227 91 135 99 231 57 84 85 85 85 73 40 33 132 249 255 255 255 249 134 33 32 31 31 0 0 0 0 0 0 0 0 0 0 0 0 0 0 0 0 0 0 0 0 0 0 0 0 0 0 0 0 0 0 0 0 0 0 0 0 0 0 
0 0 0 0 0 0 0 0 0 0 0 0 0 0 0 0 0 0 0 0 0 0 0 0 0 0 0 0 0 0 0 0 0 0 0 0 0 0 0 26 31 32 32 51 189 254 255 255 255 187 50 33 53 68 68 68 44 151 158 205 244 245 199 61 48 45 57 201 253 246 197 174 129 63 85 85 84 61 33 53 192 255 255 255 255 222 78 32 32 31 31 0 0 0 0 0 0 0 0 0 0 0 0 0 0 0 0 0 0 0 0 0 0 0 0 0 0 0 0 0 0 0 0 0 0 0 0 0 0 0 
0 0 0 0 0 0 0 0 0 0 0 0 0 0 0 0 0 0 0 0 0 0 0 0 0 0 0 0 0 0 0 0 0 0 0 0 0 0 0 0 0 30 31 32 33 129 248 255 255 255 231 90 31 43 65 62 49 59 58 50 47 48 50 65 48 45 80 57 63 67 54 65 63 75 85 79 47 32 96 234 255 255 255 254 171 44 32 31 31 24 0 0 0 0 0 0 0 0 0 0 0 0 0 0 0 0 0 0 0 0 0 0 0 0 0 0 0 0 0 0 0 0 0 0 0 0 0 0 0 0 
0 0 0 0 0 0 0 0 0 0 0 0 0 0 0 0 0 0 0 0 0 0 0 0 0 0 0 0 0 0 0 0 0 0 0 0 0 0 0 0 0 0 29 31 32 32 74 219 255 255 255 252 147 36 36 59 68 68 68 68 68 68 68 68 48 45 85 85 85 85 85 85 85 84 69 37 38 155 253 255 255 255 241 111 32 32 31 31 0 0 0 0 0 0 0 0 0 0 0 0 0 0 0 0 0 0 0 0 0 0 0 0 0 0 0 0 0 0 0 0 0 0 0 0 0 0 0 0 0 0 
0 0 0 0 0 0 0 0 0 0 0 0 0 0 0 0 0 0 0 0 0 0 0 0 0 0 0 0 0 0 0 0 0 0 0 0 0 0 0 0 0 0 0 28 32 31 32 41 167 254 255 255 255 203 60 31 47 66 68 68 68 68 68 68 48 45 85 85 85 85 85 85 83 56 32 66 210 255 255 255 255 205 62 32 32 31 29 0 0 0 0 0 0 0 0 0 0 0 0 0 0 0 0 0 0 0 0 0 0 0 0 0 0 0 0 0 0 0 0 0 0 0 0 0 0 0 0 0 0 0 
0 0 0 0 0 0 0 0 0 0 0 0 0 0 0 0 0 0 0 0 0 0 0 0 0 0 0 0 0 0 0 0 0 0 0 0 0 0 0 0 0 0 0 0 0 30 31 32 32 106 239 255 255 255 241 121 33 36 55 68 68 68 68 68 48 45 85 85 85 85 84 69 41 32 117 244 255 255 255 252 148 36 32 31 31 26 0 0 0 0 0 0 0 0 0 0 0 0 0 0 0 0 0 0 0 0 0 0 0 0 0 0 0 0 0 0 0 0 0 0 0 0 0 0 0 0 0 0 0 0 
0 0 0 0 0 0 0 0 0 0 0 0 0 0 0 0 0 0 0 0 0 0 0 0 0 0 0 0 0 0 0 0 0 0 0 0 0 0 0 0 0 0 0 0 0 0 31 32 32 32 59 202 254 255 255 254 196 71 32 36 50 61 68 68 48 45 85 84 77 61 42 32 57 182 254 255 255 255 230 89 32 32 31 29 0 0 0 0 0 0 0 0 0 0 0 0 0 0 0 0 0 0 0 0 0 0 0 0 0 0 0 0 0 0 0 0 0 0 0 0 0 0 0 0 0 0 0 0 0 0 
0 0 0 0 0 0 0 0 0 0 0 0 0 0 0 0 0 0 0 0 0 0 0 0 0 0 0 0 0 0 0 0 0 0 0 0 0 0 0 0 0 0 0 0 0 0 0 32 30 31 32 35 143 251 255 255 255 252 181 86 34 32 34 39 36 35 43 36 32 32 69 159 246 255 255 255 254 184 49 32 31 32 28 0 0 0 0 0 0 0 0 0 0 0 0 0 0 0 0 0 0 0 0 0 0 0 0 0 0 0 0 0 0 0 0 0 0 0 0 0 0 0 0 0 0 0 0 0 0 0 
0 0 0 0 0 0 0 0 0 0 0 0 0 0 0 0 0 0 0 0 0 0 0 0 0 0 0 0 0 0 0 0 0 0 0 0 0 0 0 0 0 0 0 0 0 0 0 0 0 30 32 32 32 86 228 255 255 255 255 254 228 168 121 90 74 74 86 114 157 216 254 255 255 255 255 246 124 33 32 32 32 0 0 0 0 0 0 0 0 0 0 0 0 0 0 0 0 0 0 0 0 0 0 0 0 0 0 0 0 0 0 0 0 0 0 0 0 0 0 0 0 0 0 0 0 0 0 0 0 0 
0 0 0 0 0 0 0 0 0 0 0 0 0 0 0 0 0 0 0 0 0 0 0 0 0 0 0 0 0 0 0 0 0 0 0 0 0 0 0 0 0 0 0 0 0 0 0 0 0 0 28 31 31 32 47 181 254 255 255 255 255 255 255 255 255 255 255 255 255 255 255 255 255 255 215 71 32 32 32 32 0 0 0 0 0 0 0 0 0 0 0 0 0 0 0 0 0 0 0 0 0 0 0 0 0 0 0 0 0 0 0 0 0 0 0 0 0 0 0 0 0 0 0 0 0 0 0 0 0 0 
0 0 0 0 0 0 0 0 0 0 0 0 0 0 0 0 0 0 0 0 0 0 0 0 0 0 0 0 0 0 0 0 0 0 0 0 0 0 0 0 0 0 0 0 0 0 0 0 0 0 0 0 31 32 32 32 121 245 255 255 255 255 255 255 255 255 255 255 255 255 255 255 253 161 39 32 31 32 21 0 0 0 0 0 0 0 0 0 0 0 0 0 0 0 0 0 0 0 0 0 0 0 0 0 0 0 0 0 0 0 0 0 0 0 0 0 0 0 0 0 0 0 0 0 0 0 0 0 0 0 
0 0 0 0 0 0 0 0 0 0 0 0 0 0 0 0 0 0 0 0 0 0 0 0 0 0 0 0 0 0 0 0 0 0 0 0 0 0 0 0 0 0 0 0 0 0 0 0 0 0 0 0 0 28 31 32 32 69 213 255 255 255 255 255 255 255 255 255 255 255 255 236 101 32 32 32 30 0 0 0 0 0 0 0 0 0 0 0 0 0 0 0 0 0 0 0 0 0 0 0 0 0 0 0 0 0 0 0 0 0 0 0 0 0 0 0 0 0 0 0 0 0 0 0 0 0 0 0 0 0 
0 0 0 0 0 0 0 0 0 0 0 0 0 0 0 0 0 0 0 0 0 0 0 0 0 0 0 0 0 0 0 0 0 0 0 0 0 0 0 0 0 0 0 0 0 0 0 0 0 0 0 0 0 0 22 32 31 32 39 158 254 255 255 255 255 255 255 255 255 254 196 56 32 32 31 28 0 0 0 0 0 0 0 0 0 0 0 0 0 0 0 0 0 0 0 0 0 0 0 0 0 0 0 0 0 0 0 0 0 0 0 0 0 0 0 0 0 0 0 0 0 0 0 0 0 0 0 0 0 0 
0 0 0 0 0 0 0 0 0 0 0 0 0 0 0 0 0 0 0 0 0 0 0 0 0 0 0 0 0 0 0 0 0 0 0 0 0 0 0 0 0 0 0 0 0 0 0 0 0 0 0 0 0 0 0 0 31 32 32 32 98 235 255 255 255 255 255 255 250 137 34 32 31 30 0 0 0 0 0 0 0 0 0 0 0 0 0 0 0 0 0 0 0 0 0 0 0 0 0 0 0 0 0 0 0 0 0 0 0 0 0 0 0 0 0 0 0 0 0 0 0 0 0 0 0 0 0 0 0 0 
0 0 0 0 0 0 0 0 0 0 0 0 0 0 0 0 0 0 0 0 0 0 0 0 0 0 0 0 0 0 0 0 0 0 0 0 0 0 0 0 0 0 0 0 0 0 0 0 0 0 0 0 0 0 0 0 0 29 31 32 32 55 194 254 255 255 255 224 81 32 32 32 30 0 0 0 0 0 0 0 0 0 0 0 0 0 0 0 0 0 0 0 0 0 0 0 0 0 0 0 0 0 0 0 0 0 0 0 0 0 0 0 0 0 0 0 0 0 0 0 0 0 0 0 0 0 0 0 0 0 
0 0 0 0 0 0 0 0 0 0 0 0 0 0 0 0 0 0 0 0 0 0 0 0 0 0 0 0 0 0 0 0 0 0 0 0 0 0 0 0 0 0 0 0 0 0 0 0 0 0 0 0 0 0 0 0 0 0 0 30 31 32 34 135 250 254 174 44 32 31 32 24 0 0 0 0 0 0 0 0 0 0 0 0 0 0 0 0 0 0 0 0 0 0 0 0 0 0 0 0 0 0 0 0 0 0 0 0 0 0 0 0 0 0 0 0 0 0 0 0 0 0 0 0 0 0 0 0 0 0 
0 0 0 0 0 0 0 0 0 0 0 0 0 0 0 0 0 0 0 0 0 0 0 0 0 0 0 0 0 0 0 0 0 0 0 0 0 0 0 0 0 0 0 0 0 0 0 0 0 0 0 0 0 0 0 0 0 0 0 0 30 31 32 32 79 111 32 32 32 30 0 0 0 0 0 0 0 0 0 0 0 0 0 0 0 0 0 0 0 0 0 0 0 0 0 0 0 0 0 0 0 0 0 0 0 0 0 0 0 0 0 0 0 0 0 0 0 0 0 0 0 0 0 0 0 0 0 0 0 0 
0 0 0 0 0 0 0 0 0 0 0 0 0 0 0 0 0 0 0 0 0 0 0 0 0 0 0 0 0 0 0 0 0 0 0 0 0 0 0 0 0 0 0 0 0 0 0 0 0 0 0 0 0 0 0 0 0 0 0 0 0 24 31 31 32 32 32 32 31 0 0 0 0 0 0 0 0 0 0 0 0 0 0 0 0 0 0 0 0 0 0 0 0 0 0 0 0 0 0 0 0 0 0 0 0 0 0 0 0 0 0 0 0 0 0 0 0 0 0 0 0 0 0 0 0 0 0 0 0 0 
0 0 0 0 0 0 0 0 0 0 0 0 0 0 0 0 0 0 0 0 0 0 0 0 0 0 0 0 0 0 0 0 0 0 0 0 0 0 0 0 0 0 0 0 0 0 0 0 0 0 0 0 0 0 0 0 0 0 0 0 0 0 0 31 31 31 31 23 0 0 0 0 0 0 0 0 0 0 0 0 0 0 0 0 0 0 0 0 0 0 0 0 0 0 0 0 0 0 0 0 0 0 0 0 0 0 0 0 0 0 0 0 0 0 0 0 0 0 0 0 0 0 0 0 0 0 0 0 0 0 
